# xmcd
#
# Track frame offsets: 
#        150
#        7097
#        22279
#        35567
#        51682
#        71340
#        84074
#        100019
#        116511
#        137182
#
# Disc length: 1918 seconds
#
# Revision: 0
# Processed by: cddbd v1.4PL0 Copyright (c) Steve Scherf et al.
# Submitted via: ExactAudioCopy v0.90b4
#
DISCID=86077c0a
DTITLE=Larry Howard - Sanctified Blues
DYEAR=1900
DGENRE=Blues
TTITLE0=Sanctified Blues
TTITLE1=Lost Ship
TTITLE2=Love Ain't What You Say
TTITLE3=Cool Rain
TTITLE4=I Gave Jesus My Blues
TTITLE5=Shuffle On Home
TTITLE6=One Night
TTITLE7=Everybody Wants To Go To Heaven
TTITLE8=Friend In Jesus
TTITLE9=Sanctified Blues
EXTD=
EXTT0=
EXTT1=
EXTT2=
EXTT3=
EXTT4=
EXTT5=
EXTT6=
EXTT7=
EXTT8=
EXTT9=
PLAYORDER=
